<?xml version="1.0" encoding="UTF-8"?>
<svg xmlns="http://www.w3.org/2000/svg" version="1.1" width="500" height="500" viewBox="0 0 500 500"><rect x="0" y="0" width="500" height="500" fill="#ffffff"/><g transform="scale(18.519)"><g transform="translate(1,1)"><g><g transform="translate(3.5,3.5)"><path fill-rule="evenodd" d="M-3.5 -3.5L3.5 -3.5L3.5 3.5L-3.5 3.5ZM-2.5 -2.5L-2.5 2.5L2.5 2.5L2.5 -2.5Z" fill="#000000"/><path fill-rule="evenodd" d="M-1.5 -1.5L1.5 -1.5L1.5 1.5L-1.5 1.5Z" fill="#000000"/></g></g><g><g transform="translate(21.5,3.5)"><g transform="rotate(90)"><path fill-rule="evenodd" d="M-3.5 -3.5L3.5 -3.5L3.5 3.5L-3.5 3.5ZM-2.5 -2.5L-2.5 2.5L2.5 2.5L2.5 -2.5Z" fill="#000000"/><path fill-rule="evenodd" d="M-1.5 -1.5L1.5 -1.5L1.5 1.5L-1.5 1.5Z" fill="#000000"/></g></g></g><g><g transform="translate(3.5,21.5)"><g transform="rotate(-90)"><path fill-rule="evenodd" d="M-3.5 -3.5L3.5 -3.5L3.5 3.5L-3.5 3.5ZM-2.5 -2.5L-2.5 2.5L2.5 2.5L2.5 -2.5Z" fill="#000000"/><path fill-rule="evenodd" d="M-1.5 -1.5L1.5 -1.5L1.5 1.5L-1.5 1.5Z" fill="#000000"/></g></g></g><path fill-rule="evenodd" d="M8 0L8 2L10 2L10 3L11 3L11 5L10 5L10 4L9 4L9 3L8 3L8 4L9 4L9 5L10 5L10 8L9 8L9 6L8 6L8 8L5 8L5 10L4 10L4 11L2 11L2 10L3 10L3 9L4 9L4 8L2 8L2 10L0 10L0 11L2 11L2 14L1 14L1 15L0 15L0 16L1 16L1 15L2 15L2 16L3 16L3 17L4 17L4 16L3 16L3 15L5 15L5 14L4 14L4 12L5 12L5 10L6 10L6 11L10 11L10 12L6 12L6 13L7 13L7 14L6 14L6 15L7 15L7 16L5 16L5 17L7 17L7 16L8 16L8 13L11 13L11 14L12 14L12 13L14 13L14 12L15 12L15 15L14 15L14 16L13 16L13 15L12 15L12 16L11 16L11 15L10 15L10 14L9 14L9 15L10 15L10 16L11 16L11 17L12 17L12 16L13 16L13 20L12 20L12 21L11 21L11 19L12 19L12 18L11 18L11 19L10 19L10 17L8 17L8 20L9 20L9 21L8 21L8 23L10 23L10 24L8 24L8 25L11 25L11 24L12 24L12 25L16 25L16 24L18 24L18 23L19 23L19 21L20 21L20 22L21 22L21 23L20 23L20 24L21 24L21 23L22 23L22 25L25 25L25 23L24 23L24 22L25 22L25 18L23 18L23 17L24 17L24 16L25 16L25 14L24 14L24 13L25 13L25 8L23 8L23 9L24 9L24 10L21 10L21 9L22 9L22 8L21 8L21 9L19 9L19 8L18 8L18 9L17 9L17 5L16 5L16 7L15 7L15 6L14 6L14 7L13 7L13 6L12 6L12 7L11 7L11 5L13 5L13 4L12 4L12 3L14 3L14 4L17 4L17 3L16 3L16 2L15 2L15 3L14 3L14 1L15 1L15 0L14 0L14 1L13 1L13 0L11 0L11 2L10 2L10 1L9 1L9 0ZM16 0L16 1L17 1L17 0ZM12 1L12 2L13 2L13 1ZM0 8L0 9L1 9L1 8ZM8 8L8 10L9 10L9 8ZM13 8L13 10L12 10L12 9L10 9L10 11L11 11L11 13L12 13L12 12L13 12L13 10L14 10L14 8ZM15 8L15 9L16 9L16 10L15 10L15 11L16 11L16 13L17 13L17 14L18 14L18 15L15 15L15 17L14 17L14 21L12 21L12 23L13 23L13 24L15 24L15 22L14 22L14 21L15 21L15 19L16 19L16 16L21 16L21 17L23 17L23 15L24 15L24 14L23 14L23 12L24 12L24 11L23 11L23 12L22 12L22 15L19 15L19 14L18 14L18 12L17 12L17 11L20 11L20 12L21 12L21 10L19 10L19 9L18 9L18 10L17 10L17 9L16 9L16 8ZM6 9L6 10L7 10L7 9ZM16 10L16 11L17 11L17 10ZM20 13L20 14L21 14L21 13ZM17 17L17 20L20 20L20 17ZM18 18L18 19L19 19L19 18ZM21 18L21 22L23 22L23 21L24 21L24 20L23 20L23 19L22 19L22 18ZM9 19L9 20L10 20L10 19ZM22 20L22 21L23 21L23 20ZM10 21L10 22L11 22L11 21ZM17 21L17 22L16 22L16 23L18 23L18 21Z" fill="#000000"/></g></g></svg>
